<svg viewBox="0 0 1218.3 666.38" xmlns="http://www.w3.org/2000/svg"><g fill="#008ecf"><path d="m459.1 326.68c0-8.1 3.5-11.5 11.5-11.5h64.5c59.3 0 92.1 35.7 92.1 100.7s-32.8 100.7-92.1 100.7h-64.5c-8.1 0-11.5-3.4-11.5-11.5zm75.9 152.2c30.8 0 46.6-22.2 46.6-63s-15.8-63-46.6-63h-31.4v126z"/><path d="m655.1 326.68c0-8.1 3.4-11.5 11.5-11.5h105.3c6 0 8.6 4.3 8.6 14.4v8.9c0 10.1-2.6 14.4-8.6 14.4h-72.5v41.7h64.7c6 0 8.6 4.3 8.6 14.4v8.9c0 10.1-2.6 14.4-8.6 14.4h-64.7v46.6h72.8c6 0 8.6 4.3 8.6 14.4v8.9c0 10.1-2.6 14.4-8.6 14.4h-105.6c-8.1 0-11.5-3.4-11.5-11.5z"/><path d="m810 323.88c0-6 5.2-9.2 17.3-9.2h9.8c12.1 0 17.3 3.2 17.3 9.2v155.12h64.2c6 0 8.6 4.3 8.6 14.4v8.9c0 10.1-2.6 14.4-8.6 14.4h-97c-8.1 0-11.5-3.4-11.5-11.5v-181.32z"/><path d="m1052.5 315.18h-136.1c-6 0-8.6 4.3-8.6 14.4v8.9c0 10.1 2.6 14.4 8.6 14.4h45.7v158.6a3.75 3.75 0 0 0 .1 1.1c.1 2.5 1.8 4.5 3.8 4.5h36.9c2.1 0 3.8-2.2 3.8-4.8v-159.4h45.7c6 0 8.6-4.3 8.6-14.4v-8.9c.1-10.1-2.5-14.4-8.5-14.4z"/><path d="m1217.3 510.88a18.9 18.9 0 0 0 -.9-5.2l-63.3-185c-1.7-4.6-8.1-6-16.4-6h-15c-8.3 0-14.7 1.5-16.4 6l-63.3 185a19.42 19.42 0 0 0 -1.1 5.2v.2a6 6 0 0 0 6 6.1h28.7a7.77 7.77 0 0 0 1.6-.2c2.6-.5 4.5-1.9 5.9-5.8l11.5-35.1h67.9l11.5 35.1c2.5 6.9 7.1 6.2 14.4 6.1h22.8a6 6 0 0 0 6-6.1v-.1a.31.31 0 0 0 .1-.2zm-110.2-72.8 17-51.2c1.7-4.9 4.3-18.4 4.3-18.4h1.2s2.9 14.7 4.3 18.4l16.4 51.2z"/><path d="m359.3 151.78-27.2-37.9a7.2 7.2 0 0 0 -10.4-1.4c-111.3 92.9-183.5 236-185.6 396.9a7.11 7.11 0 0 0 7.2 7.2h46.6a7.13 7.13 0 0 0 7.1-7.1c2-140.9 64.6-266.3 161.2-348a7.24 7.24 0 0 0 1.1-9.7zm-79.6-110.9-27.2-37.88a7.17 7.17 0 0 0 -10.3-1.4 639.08 639.08 0 0 0 -60.8 56c-115.4 120.98-179.6 281.18-181.4 451.78a7.17 7.17 0 0 0 7.2 7.2h46.6a7.13 7.13 0 0 0 7.1-7.1c1.7-154.9 60-300.2 164.6-409.9a593.79 593.79 0 0 1 52.9-49 7.17 7.17 0 0 0 1.3-9.7zm132 183.9a7.14 7.14 0 0 0 -10.5-1.2c-77.1 67.9-127 170.6-129 285.8a7.11 7.11 0 0 0 7.2 7.2h46.6a7.28 7.28 0 0 0 7.2-7.1c1.9-95.4 42.4-180.5 104.9-237.3a7.22 7.22 0 0 0 1.1-9.5z"/><path d="m927.8 588.08h52.6v10.4h-40.8v22.9h40v10.3h-40v34.7h-11.7v-78.3z"/><path d="m991.1 588.08h11.7v78.3h-11.7z"/><path d="m1019.4 588.08h36.7c14 0 22.1 8.6 22.1 20 0 9.9-6.5 16.4-13.6 18 8.3 1.3 15.1 9.7 15.1 19.2 0 12.3-8.2 21.1-22.7 21.1h-37.7v-78.3zm34.5 33.2c7.9 0 12.2-4.9 12.2-11.4s-4.3-11.5-12.2-11.5h-22.8v22.9zm.6 34.8c8.2 0 13.1-4.7 13.1-12.3 0-6.5-4.5-12.1-13.1-12.1h-23.4v24.4z"/><path d="m1093.5 588.08h52.6v10.4h-40.8v22.9h40v10.3h-40v24.4h40.8v10.3h-52.6z"/><path d="m1186 636.18h-14.7v30.2h-11.7v-78.3h33c14.9 0 25.1 9.6 25.1 24.1 0 14.1-9.5 21.6-19.5 22.9l20.1 31.3h-13.6zm5.1-37.7h-19.7v27.52h19.7c8.5 0 14.6-5.5 14.6-13.7s-6.2-13.82-14.6-13.82z"/></g></svg>