<svg version="1.1" id="Layer_1" xmlns="http://www.w3.org/2000/svg" xmlns:xlink="http://www.w3.org/1999/xlink" x="0px" y="0px" width="200px" height="45px" viewBox="0 0 434.628 91.479" enable-background="new 0 0 434.628 91.479" xml:space="preserve"><g><path fill="#2E3181" d="M235.609,39.188c1.715-1.416,5.148-4.326,12.084-4.326c10.146,0,15.74,7.535,15.74,17.305c0,10.594-5.221,19.619-16.559,19.619c-6.344,0-9.697-2.834-11.266-4.104c-0.076,5.445,0.447,19.021,0.746,22.08c1.641,0.076,2.91,0.225,5.596,0.449v1.268c-2.537,0-5.072-0.074-7.609-0.074c-2.611,0-5.146,0.074-7.684,0.074v-1.268l4.252-0.225c0.299-4.998,0.523-9.25,0.523-21.336c0-18.273-0.225-23.869-0.523-31.252l-4.998-0.301v-1.342c0.896,0.072,1.566,0.148,2.91,0.148c2.238,0,5.146,0,7.012-0.148L235.609,39.188z M235.533,64.401c3.209,4.176,8.133,5.594,11.414,5.594c3.881,0,6.789-2.014,8.654-4.623c2.686-3.879,2.984-9.102,2.984-12.16c0-4.998-1.045-8.654-2.613-11.04c-2.086-3.134-5.816-5.146-9.547-5.146c-3.506,0-7.533,1.416-10.893,4.996V64.401z"></path><path fill="#2E3181" d="M297.671,48.289c-2.686-0.075-5.297-0.149-7.98-0.149c-4.104,0-7.311,0.074-12.682,0.223c-0.074,1.568-0.225,2.91-0.225,4.551c0,11.266,5.818,17.158,12.906,17.158c3.207,0,5.967-1.045,8.727-2.686l-0.148,1.939c-2.09,1.043-5.146,2.461-10.443,2.461c-3.58,0-5.818-0.67-7.162-1.268c-6.041-2.609-9.174-9.326-9.174-17.156c0-13.277,8.279-18.5,15.74-18.5c5.592,0,8.354,3.131,8.949,3.803c2.91,3.281,3.207,7.385,3.357,9.624H297.671z M294.39,46.501c0.223-7.388-4.104-9.925-7.609-9.925c-2.76,0-7.906,1.345-9.549,10.072L294.39,46.501z"></path><path fill="#2E3181" d="M321.691,71.786c-4.924,0-9.846-1.938-12.904-5.146c-4.551-4.7-4.699-10.968-4.699-13.428c0-12.458,8.279-18.35,17.977-18.35c12.309,0,17.529,9.324,17.381,18.5C339.146,65.146,330.941,71.786,321.691,71.786z M321.767,36.576c-11.861,0-12.459,11.34-12.459,17.157c0,2.91,0.225,7.607,2.611,11.116c2.387,3.581,6.193,5.071,9.771,5.071c4.027,0,7.387-1.639,9.697-4.922c2.762-4.027,2.91-9.027,2.836-11.787C334.074,46.2,331.912,36.576,321.767,36.576z"></path><path fill="#2E3181" d="M353.619,39.188c1.715-1.416,5.146-4.326,12.084-4.326c10.143,0,15.738,7.535,15.738,17.305c0,10.594-5.221,19.619-16.559,19.619c-6.342,0-9.699-2.834-11.264-4.104c-0.074,5.445,0.447,19.021,0.748,22.08c1.639,0.076,2.906,0.225,5.592,0.449v1.268c-2.535,0-5.07-0.074-7.609-0.074c-2.611,0-5.146,0.074-7.682,0.074v-1.268l4.252-0.225c0.297-4.998,0.521-9.25,0.521-21.336c0-18.273-0.225-23.869-0.521-31.252l-4.998-0.301v-1.342c0.896,0.072,1.566,0.148,2.91,0.148c2.234,0,5.145,0,7.01-0.148L353.619,39.188z M353.544,64.401c3.207,4.176,8.131,5.594,11.412,5.594c3.879,0,6.789-2.014,8.654-4.623c2.686-3.879,2.98-9.102,2.98-12.16c0-4.998-1.043-8.654-2.609-11.04c-2.088-3.134-5.818-5.146-9.545-5.146c-3.508,0-7.535,1.416-10.893,4.996V64.401z"></path><path fill="#2E3181" d="M402.253,70.89c-2.762-0.074-6.488-0.146-8.354-0.146c-1.195,0-1.643,0-8.131,0.146v-1.342c2.385-0.223,2.836-0.223,5.297-0.371c0.67-10.369,0.67-20.814,0.67-31.256c0-13.204-0.299-33.222-0.445-35.98c-2.389-0.3-3.732-0.523-5.299-0.673L386.066,0c1.643,0,3.285,0.075,4.924,0.075c1.865,0,3.73-0.075,5.594-0.075l-0.447,12.159c-0.148,5.671-0.221,25.91-0.221,31.28c0,10.743,0.371,19.395,0.596,25.737c2.76,0.148,2.836,0.148,5.742,0.371V70.89z"></path><path fill="#2E3181" d="M432.763,48.289c-2.684-0.075-5.297-0.149-7.98-0.149c-4.104,0-7.312,0.074-12.68,0.223c-0.076,1.568-0.227,2.91-0.227,4.551c0,11.266,5.818,17.158,12.906,17.158c3.207,0,5.967-1.045,8.729-2.686l-0.15,1.939c-2.09,1.043-5.146,2.461-10.443,2.461c-3.58,0-5.82-0.67-7.162-1.268c-6.043-2.609-9.174-9.326-9.174-17.156c0-13.277,8.277-18.5,15.738-18.5c5.594,0,8.355,3.131,8.951,3.803c2.908,3.281,3.207,7.385,3.357,9.624H432.763z M429.482,46.501c0.223-7.388-4.104-9.925-7.609-9.925c-2.762,0-7.906,1.345-9.549,10.072L429.482,46.501z"></path></g><g><g><path fill="#605D52" d="M74.192,45.708c1.153,0.057,1.977,0.057,4.229,0.057c1.371,0,1.866,0,2.853-0.057c-0.274,3.242-0.439,5.602-0.439,9.501c0,4.007,0,11.364,0.165,15.097c1.537,0.055,2.033,0.109,3.57,0.277l0.054,0.984c-3.459-0.107-3.844-0.051-5.599-0.051c-1.044,0-2.691-0.057-5.326,0.051v-0.984c1.756-0.111,1.92-0.111,3.733-0.223c0.33-3.842,0.33-12.187,0.33-15.92c0-3.24-0.166-5.711-0.22-7.358c-1.647-0.163-2.032-0.219-3.349-0.438V45.708z M79.242,37.747c-0.769,0-1.921-0.602-1.921-2.249c0-1.593,0.989-2.746,2.253-2.746c1.591,0,1.92,1.593,1.864,2.581C81.273,36.595,80.505,37.747,79.242,37.747z"></path><path fill="#605D52" d="M116.631,71.567c-0.769-0.051-1.426-0.107-2.635-0.107c-1.482,0-3.185,0.057-4.722,0.107c0.385-3.676,0.439-9.824,0.439-10.65c0-1.371-0.109-6.807-0.659-8.892c-1.372-4.833-6.205-4.833-6.809-4.833c-3.183,0-5.818,1.922-7.52,5.381c0,0.879-0.055,1.701-0.055,2.636v3.567c0,3.843,0.165,7.633,0.439,11.422c1.426,0.107,1.866,0.162,3.293,0.385v0.984c-0.274,0-2.855-0.107-5.6-0.107c-2.032,0.057-3.293,0.057-5.27,0.107v-0.984c1.591-0.277,2.084-0.33,3.569-0.441c0.327-6.148,0.438-8.619,0.438-12.572c0-5.603-0.165-8.619-0.274-10.541l-3.733-0.33v-0.99c1.372,0.11,1.866,0.11,3.073,0.11c1.153,0,2.802-0.054,4.448-0.11l-0.22,4.339c1.922-1.812,5.215-4.995,10.102-4.995c7.962,0,7.962,8.125,7.962,11.09l-0.057,5.491c0,5.382,0.22,7.413,0.33,8.673c1.539,0.109,1.922,0.166,3.459,0.277V71.567z"></path><path fill="#605D52" d="M147.597,71.567c-0.934,0-2.525-0.051-4.01-0.051c-1.48,0-2.854,0.051-3.348,0.051l0.221-2.521c-2.306,1.754-4.393,3.184-8.126,3.184c-7.248,0-12.189-5.93-12.189-13.837c0-7.687,4.941-13.341,12.024-13.341c4.503,0,7.139,1.922,8.456,2.91c0.055-1.539,0.055-3.459,0.055-4.998c0-5.928-0.275-8.893-0.494-11.254c-1.758-0.165-2.141-0.221-3.569-0.384v-0.935c1.647,0.055,3.624,0.055,5.325,0.055c0.826,0,1.429,0,1.979-0.055c-0.221,3.791-0.221,5.654-0.221,10.871V57.79c0,7.028,0.055,8.949,0.385,12.57c1.483,0.055,1.867,0.055,3.514,0.223V71.567z M140.624,56.306l0.055-4.172c0-1.758-0.219-2.252-0.385-2.525c-0.549-0.934-3.842-3.237-7.632-3.237c-3.622,0-5.819,1.864-7.137,4.17c-1.153,2.087-1.593,4.722-1.593,8.127c0,2.798,0.275,5.654,1.703,8.071c1.538,2.633,4.173,4.061,7.357,4.061c4.118,0,6.974-2.523,7.468-4.611c0.219-0.877,0.219-5.436,0.219-6.643L140.624,56.306z"></path><path fill="#605D52" d="M170.271,54.935c-1.978-0.055-3.897-0.109-5.874-0.109c-3.021,0-5.38,0.055-9.334,0.163c-0.054,1.153-0.164,2.144-0.164,3.349c0,8.291,4.283,12.631,9.498,12.631c2.36,0,4.391-0.77,6.424-1.979l-0.11,1.426c-1.537,0.77-3.789,1.814-7.686,1.814c-2.637,0-4.283-0.494-5.271-0.936C153.306,69.372,151,64.433,151,58.668c0-9.774,6.094-13.616,11.585-13.616c4.116,0,6.149,2.306,6.588,2.8c2.141,2.416,2.36,5.438,2.471,7.083H170.271z M167.855,53.616c0.166-5.436-3.02-7.304-5.6-7.304c-2.031,0-5.82,0.99-7.028,7.412L167.855,53.616z"></path><path fill="#605D52" d="M173.839,45.708c1.593,0.057,1.977,0.11,3.516,0.11c2.195,0,6.478-0.11,7.245-0.11v0.99c-2.031,0.221-2.414,0.221-3.238,0.275c1.977,3.24,4.062,6.699,6.148,9.389c2.745-3.845,4.94-7.248,5.874-9.334c-1.206-0.055-1.372-0.109-2.963-0.275v-1.045c1.536,0.057,2.139,0.11,5.104,0.11c1.867,0,2.689-0.054,4.009-0.11v0.99c-1.319,0.165-1.868,0.165-2.911,0.275c-2.965,3.294-5.709,6.699-8.345,10.264c1.977,2.967,7.851,10.982,9.937,13.016l3.296,0.33l-0.055,0.984c-1.209-0.051-2.087-0.107-3.569-0.107c-2.416,0-5.217,0.057-7.686,0.107l0.054-0.984c0.438,0,2.69-0.168,3.239-0.223c-0.494-0.988-0.878-1.537-1.428-2.414c-0.768-1.152-4.775-6.918-5.654-8.236c-2.472,3.187-6.204,8.4-7.303,10.65c1.372,0.111,1.647,0.111,3.076,0.275l0.054,0.932c-1.482,0-2.965-0.051-4.392-0.051c-1.482,0-2.965,0.051-4.448,0.051v-0.932l2.636-0.221c4.009-4.553,7.741-8.893,9.607-11.693c-0.768-1.042-4.502-6.204-5.435-7.303c-1.152-1.482-2.36-2.908-3.568-4.391l-2.801-0.33V45.708z"></path></g><rect x="59.51" y="38.323" fill="#605D52" width="1.838" height="33.426"></rect><rect x="213.362" y="14.224" fill="#605D52" width="2.829" height="57.992"></rect></g><g><path fill="#BFBC91" d="M6.026,55.663c-0.035,2.01-0.106,7.788-0.106,8.705c0,3.03,0,6.342,3.348,6.342c0.599,0,0.951-0.141,1.445-0.281v0.705c-0.67,0.246-1.586,0.528-2.96,0.528c-4.969,0-4.969-3.242-4.969-5.215c0-3.596,0.106-7.189,0.106-10.784H0v-0.881h2.89c-0.07-2.36-0.07-2.713-0.211-3.911l3.171-1.903h0.494c-0.247,3.665-0.247,4.087-0.317,5.814h4.475v0.881H6.026z"></path><path fill="#BFBC91" d="M17.902,57.777c2.749-3.171,5.743-3.382,6.625-3.382c0.705,0,1.445,0.104,2.114,0.387c1.868,0.705,2.749,2.044,3.066,3.911c0.141,0.706,0.141,1.093,0.141,4.688c0,2.432,0.071,4.827,0.247,7.188l2.185,0.212v0.669c-0.775-0.034-1.233-0.07-2.079-0.07c-1.199,0-2.432,0.07-3.63,0.07c0.176-2.713,0.211-5.497,0.211-7.471c0-2.572,0-4.615-0.951-6.097c-0.741-1.127-2.009-1.832-3.349-1.832c-1.409,0-3.312,0.812-4.158,2.679c-0.388,0.846-0.422,1.479-0.422,2.714c0,6.659,0.105,7.681,0.211,9.126c1.022,0.07,1.515,0.141,2.326,0.212v0.669c-1.198-0.034-2.89-0.07-3.629-0.07c-1.515,0-3.066,0.07-4.581,0.07v-0.669c0.775-0.071,1.339-0.142,2.255-0.176c0.176-1.798,0.282-3.031,0.317-6.837c0.035-1.868,0.035-4.651,0.035-6.942c0-5.32-0.07-7.365-0.387-11.029c-0.881-0.071-1.445-0.106-2.326-0.212v-0.67c1.163,0.035,1.973,0.071,3.418,0.071c0.846,0,1.551,0,2.608-0.071c-0.105,1.974-0.141,3.384-0.176,5.744L17.902,57.777z"></path><path fill="#BFBC91" d="M48.086,70.464c-1.163,0.564-2.784,1.374-5.78,1.374c-1.797,0-2.995-0.212-3.946-0.6c-2.432-0.95-4.863-3.594-4.863-8.068c0-6.132,4.158-8.774,8.527-8.774c2.326,0,3.912,0.81,4.863,1.655c1.762,1.586,1.868,3.524,1.938,4.969c-1.727-0.035-2.854-0.07-5.145-0.07c-0.951,0-3.418,0-6.519,0.106c-0.07,0.563-0.106,1.198-0.106,1.938c0,1.197,0.106,3.102,1.022,4.827c1.409,2.573,3.7,3.137,5.321,3.137c2.396,0,4.053-1.092,4.722-1.551L48.086,70.464z M45.549,60.104c0-0.635,0-1.304-0.211-2.114c-0.494-1.655-1.833-2.784-3.595-2.784c-2.749,0-4.052,2.29-4.511,4.969L45.549,60.104z"></path></g></svg>
