<svg width="168" height="54" viewBox="0 0 168 54" fill="none" xmlns="http://www.w3.org/2000/svg">
<path d="M70.0142 24.222C69.5822 24.222 69.2222 23.7181 69.2222 23.2861C69.2222 22.9981 69.3302 22.674 69.5102 22.494L76.2062 13.674C76.5302 13.242 77.1062 12.846 77.5382 12.702C77.1062 12.594 76.6382 12.162 76.2782 11.73L69.6542 2.98206C69.4742 2.80206 69.4022 2.55005 69.4022 2.29805C69.4022 1.83005 69.7622 1.32605 70.2302 1.32605H74.4422L81.1742 10.434H82.3622L89.0942 1.32605H93.3062C93.8102 1.32605 94.1702 1.83005 94.1702 2.29805C94.1702 2.55005 94.0622 2.80206 93.9182 2.98206L87.2582 11.73C86.9342 12.162 86.4302 12.594 86.0342 12.702C86.4662 12.846 87.0422 13.242 87.3662 13.674L94.0622 22.494C94.2062 22.674 94.3502 22.9981 94.3502 23.2861C94.3502 23.7181 93.9902 24.222 93.5582 24.222H89.1662L82.3622 14.97H81.1742L74.4062 24.222H70.0142ZM96.9782 2.98206C96.9782 2.33406 97.9862 1.32605 98.6342 1.32605H116.886C117.426 1.32605 117.966 1.86604 117.966 2.40604V4.78206C117.966 5.32206 117.426 5.86205 116.886 5.86205H102.162V10.506H114.834C115.41 10.506 115.914 11.0101 115.914 11.5861V13.8541C115.914 14.3941 115.41 14.934 114.834 14.934H102.162V19.6861H116.886C117.426 19.6861 117.966 20.226 117.966 20.766V23.142C117.966 23.682 117.426 24.222 116.886 24.222H98.6342C97.9862 24.222 96.9782 23.214 96.9782 22.566V2.98206ZM121.026 5.61004C121.026 4.17004 124.014 1.32605 125.454 1.32605H140.862C141.402 1.32605 141.942 1.86604 141.942 2.40604V4.78206C141.942 5.32206 141.402 5.86205 140.862 5.86205H126.21V19.6861H140.862C141.402 19.6861 141.942 20.226 141.942 20.766V23.142C141.942 23.682 141.402 24.222 140.862 24.222H125.454C124.014 24.222 121.026 21.378 121.026 19.938V5.61004ZM144.786 5.61004C144.786 4.17004 147.774 1.32605 149.214 1.32605H163.29C164.73 1.32605 167.718 4.17004 167.718 5.61004V19.938C167.718 21.378 164.73 24.222 163.29 24.222H149.214C147.774 24.222 144.786 21.378 144.786 19.938V5.61004ZM162.534 19.6861V5.86205H149.97V19.6861H162.534ZM70.8062 30.684C70.8062 30.144 71.3462 29.6041 71.8862 29.6041H74.9102C75.4502 29.6041 75.9902 30.144 75.9902 30.684V47.9641H88.3382C88.8782 47.9641 89.4182 48.504 89.4182 49.044V51.42C89.4182 51.96 88.8782 52.5001 88.3382 52.5001H72.5702C71.9222 52.5001 70.8062 51.3841 70.8062 50.736V30.684ZM100.146 30.756C100.398 30.18 101.01 29.6041 101.73 29.6041H106.014C106.734 29.6041 107.346 30.18 107.598 30.756L116.85 51.024C116.922 51.204 116.994 51.4201 116.994 51.5641C116.994 52.0321 116.598 52.5001 116.094 52.5001H111.81L109.866 48.0001H97.8422L95.9342 52.5001H91.6502C91.1462 52.5001 90.7862 52.0321 90.7862 51.5641C90.7862 51.4201 90.8222 51.204 90.8942 51.024L100.146 30.756ZM99.6062 43.788H108.138L104.142 34.5001H103.602L99.6062 43.788ZM118.902 31.26C118.902 30.612 119.91 29.6041 120.558 29.6041H136.902C138.342 29.6041 141.33 32.448 141.33 33.888V38.46C141.33 39.252 140.25 40.44 139.278 40.908C140.322 41.232 141.762 42.564 141.762 43.572V48.216C141.762 49.656 138.774 52.5001 137.334 52.5001H120.558C119.91 52.5001 118.902 51.384 118.902 50.772V31.26ZM136.146 38.856V34.14H124.086V38.856H136.146ZM136.578 47.9641V43.104H124.086V47.9641H136.578ZM145.11 49.044C145.11 48.504 145.65 47.9641 146.19 47.9641H162.03V43.284H149.106C147.666 43.284 144.678 40.332 144.678 38.892V33.888C144.678 32.448 147.666 29.6041 149.106 29.6041H165.45C165.99 29.6041 166.53 30.144 166.53 30.684V33.06C166.53 33.6 165.99 34.14 165.45 34.14H149.862V38.748H162.786C164.226 38.748 167.214 41.6641 167.214 43.104V48.216C167.214 49.656 164.226 52.5001 162.786 52.5001H146.19C145.65 52.5001 145.11 51.96 145.11 51.42V49.044Z" fill="#333333"/>
<path d="M23.1001 27V22.668C23.1001 20.52 23.9521 18.462 25.4701 16.944L41.5621 0.851999C42.0301 0.383999 42.9601 0 43.6201 0H52.7821C53.4481 0 53.9881 0.546006 53.9881 1.20601V10.368C53.9881 11.034 53.6041 11.958 53.1361 12.426L38.5681 26.994H23.1001V27Z" fill="url(#paint0_linear_10_92)"/>
<path d="M38.574 27L53.142 41.568C53.61 42.036 53.994 42.966 53.994 43.626V52.788C53.994 53.454 53.448 53.994 52.788 53.994H43.6259C42.9599 53.994 42.0359 53.61 41.5679 53.142L25.4759 37.05C23.9579 35.532 23.106 33.474 23.106 31.326V26.994H38.574V27Z" fill="url(#paint1_linear_10_92)"/>
<path d="M38.574 27L12.426 0.851999C11.958 0.383999 11.028 0 10.368 0H1.20601C0.540006 0 0 0.546006 0 1.20601V10.368C0 11.034 0.384008 11.958 0.852008 12.426L15.42 26.994L17.988 27.426C23.4 28.332 28.914 28.398 34.344 27.606L38.574 26.994V27Z" fill="url(#paint2_linear_10_92)"/>
<path d="M38.574 27L12.426 53.148C11.958 53.616 11.028 54 10.368 54H1.20601C0.540006 54 0 53.454 0 52.794V43.632C0 42.966 0.384008 42.042 0.852008 41.574L15.42 27.006H38.574V27Z" fill="url(#paint3_linear_10_92)"/>
<defs>
<linearGradient id="paint0_linear_10_92" x1="32.8441" y1="21.204" x2="52.7581" y2="1.128" gradientUnits="userSpaceOnUse">
<stop stop-color="#3B74B9"/>
<stop offset="1" stop-color="#80CFF5"/>
</linearGradient>
<linearGradient id="paint1_linear_10_92" x1="32.244" y1="32.082" x2="53.16" y2="53.502" gradientUnits="userSpaceOnUse">
<stop stop-color="#3B74B9"/>
<stop offset="1" stop-color="#80CFF5"/>
</linearGradient>
<linearGradient id="paint2_linear_10_92" x1="1.482" y1="12.486" x2="34.818" y2="15.864" gradientUnits="userSpaceOnUse">
<stop stop-color="#3B74B9"/>
<stop offset="1" stop-color="#80CFF5"/>
</linearGradient>
<linearGradient id="paint3_linear_10_92" x1="-1.134" y1="38.376" x2="32.196" y2="41.754" gradientUnits="userSpaceOnUse">
<stop stop-color="#3B74B9"/>
<stop offset="1" stop-color="#80CFF5"/>
</linearGradient>
</defs>
</svg>
